# xmcd
#
# Track frame offsets: 
#        150
#        15940
#        29615
#        44560
#        63215
#        84457
#        100620
#        115922
#        133952
#        152482
#        173535
#        185705
#        201835
#        219307
#        234997
#        252627
#
# Disc length: 3531 seconds
#
# Revision: 18
# Processed by: cddbd v1.5.2PL0 Copyright (c) Steve Scherf et al.
# Submitted via: ExactAudioCopy v1.0b3
#
DISCID=d40dc910
DTITLE=Smokie - Smokie Forever (DCD, CD 1)
DYEAR=1990
DGENRE=Pop
TTITLE0=Living next door to Alice (1976)
TTITLE1=Something's been making me blue (1976)
TTITLE2=Don't play your Rock 'N' Roll to me (1975)
TTITLE3=I can't stay here tonight (1977)
TTITLE4=Poor lady (Midnight baby) (1976)
TTITLE5=It's your life (1977)
TTITLE6=Changing all the time (1975)
TTITLE7=Mexican girl (1978)
TTITLE8=Lay back in the arms of someone (1977)
TTITLE9=Stranger (1976)
TTITLE10=Talking her round (1975)
TTITLE11=For a few dollars more (1978)
TTITLE12=The dancer (1977)
TTITLE13=Now you think you know (1977)
TTITLE14=We're flyin' high (1975)
TTITLE15=Needles and pins (1977)
EXTD=
EXTT0=
EXTT1=
EXTT2=
EXTT3=
EXTT4=
EXTT5=
EXTT6=
EXTT7=
EXTT8=
EXTT9=
EXTT10=
EXTT11=
EXTT12=
EXTT13=
EXTT14=
EXTT15=
PLAYORDER=
